# xmcd CD database file
#
# Track frame offsets:
#	150
#	19095
#	38595
#	54070
#	70398
#	94980
#	109531
#	124809
#	143420
#	156650
#	173181
#
# Disc length: 2588 seconds
#
# Revision: 0
# Processed by: cddbd v1.5.1PL0 Copyright (c) Steve Scherf et al.
# Submitted via: CDex 1.51
#
DISCID=8c0a1a0b
DTITLE=Claire Riter - In Between
DYEAR=1987
DGENRE=Jazz
TTITLE0=In Between
TTITLE1=Huntington Ave Potholes
TTITLE2=Tar
TTITLE3=An American Lullaby
TTITLE4=Tuesday at Rans
TTITLE5=Wintry Shadows
TTITLE6=Autumn in Brookline Village
TTITLE7=Abkarah
TTITLE8=Mr Frenches Buff
TTITLE9=Tar
TTITLE10=In Between
EXTD=YEAR: 1987
EXTT0=
EXTT1=
EXTT2=
EXTT3=
EXTT4=
EXTT5=
EXTT6=
EXTT7=
EXTT8=
EXTT9=
EXTT10=
PLAYORDER=
